<mxfile host="app.diagrams.net" modified="2024-01-02T13:42:23.398Z" agent="Mozilla/5.0 (Windows NT 10.0; Win64; x64) AppleWebKit/537.36 (KHTML, like Gecko) Chrome/120.0.0.0 Safari/537.36" etag="_vWbKB0ZBekHTCL3jM_B" version="22.1.16" type="device">
  <diagram name="第 1 页" id="5yNrs7rGHUOvNTZ46_Np">
    <mxGraphModel dx="1434" dy="746" grid="1" gridSize="10" guides="1" tooltips="1" connect="1" arrows="1" fold="1" page="1" pageScale="1" pageWidth="827" pageHeight="1169" math="0" shadow="0">
      <root>
        <mxCell id="0" />
        <mxCell id="1" parent="0" />
        <mxCell id="hgzCKF4HWemiebVeBqzx-1" value="員工註冊" style="rounded=1;whiteSpace=wrap;html=1;" vertex="1" parent="1">
          <mxGeometry x="555" y="700" width="170" height="80" as="geometry" />
        </mxCell>
        <mxCell id="hgzCKF4HWemiebVeBqzx-2" value="員工帳號" style="ellipse;whiteSpace=wrap;html=1;" vertex="1" parent="1">
          <mxGeometry x="310" y="450" width="120" height="80" as="geometry" />
        </mxCell>
        <mxCell id="hgzCKF4HWemiebVeBqzx-3" value="員工姓名" style="ellipse;whiteSpace=wrap;html=1;" vertex="1" parent="1">
          <mxGeometry x="441" y="385.35" width="120" height="80" as="geometry" />
        </mxCell>
        <mxCell id="hgzCKF4HWemiebVeBqzx-4" value="密碼" style="ellipse;whiteSpace=wrap;html=1;" vertex="1" parent="1">
          <mxGeometry x="571.3900000000001" y="360" width="120" height="80" as="geometry" />
        </mxCell>
        <mxCell id="hgzCKF4HWemiebVeBqzx-5" value="確認密碼" style="ellipse;whiteSpace=wrap;html=1;" vertex="1" parent="1">
          <mxGeometry x="730" y="360.35" width="120" height="80" as="geometry" />
        </mxCell>
        <mxCell id="hgzCKF4HWemiebVeBqzx-6" value="手機號碼" style="ellipse;whiteSpace=wrap;html=1;" vertex="1" parent="1">
          <mxGeometry x="880" y="400" width="120" height="80" as="geometry" />
        </mxCell>
        <mxCell id="hgzCKF4HWemiebVeBqzx-7" value="郵箱" style="ellipse;whiteSpace=wrap;html=1;" vertex="1" parent="1">
          <mxGeometry x="1000" y="490" width="120" height="80" as="geometry" />
        </mxCell>
        <mxCell id="hgzCKF4HWemiebVeBqzx-8" value="" style="line;strokeWidth=4;direction=south;html=1;perimeter=backbonePerimeter;points=[];outlineConnect=0;rotation=-57;" vertex="1" parent="1">
          <mxGeometry x="501.1500000000001" y="460.98" width="10" height="308.94" as="geometry" />
        </mxCell>
        <mxCell id="hgzCKF4HWemiebVeBqzx-9" value="" style="line;strokeWidth=4;direction=south;html=1;perimeter=backbonePerimeter;points=[];outlineConnect=0;rotation=-25;" vertex="1" parent="1">
          <mxGeometry x="571.3900000000001" y="448.58" width="10" height="260" as="geometry" />
        </mxCell>
        <mxCell id="hgzCKF4HWemiebVeBqzx-10" value="" style="line;strokeWidth=4;direction=south;html=1;perimeter=backbonePerimeter;points=[];outlineConnect=0;rotation=0;" vertex="1" parent="1">
          <mxGeometry x="630" y="440.35" width="10" height="259.65" as="geometry" />
        </mxCell>
        <mxCell id="hgzCKF4HWemiebVeBqzx-11" value="" style="line;strokeWidth=4;direction=south;html=1;perimeter=backbonePerimeter;points=[];outlineConnect=0;rotation=30;" vertex="1" parent="1">
          <mxGeometry x="704.6700000000001" y="421.25" width="10" height="298.48" as="geometry" />
        </mxCell>
        <mxCell id="hgzCKF4HWemiebVeBqzx-12" value="" style="line;strokeWidth=4;direction=south;html=1;perimeter=backbonePerimeter;points=[];outlineConnect=0;rotation=50;" vertex="1" parent="1">
          <mxGeometry x="765.03" y="411.67" width="10" height="345.15" as="geometry" />
        </mxCell>
        <mxCell id="hgzCKF4HWemiebVeBqzx-13" value="" style="line;strokeWidth=4;direction=south;html=1;perimeter=backbonePerimeter;points=[];outlineConnect=0;rotation=72;" vertex="1" parent="1">
          <mxGeometry x="828.29" y="424.19" width="10" height="415.15" as="geometry" />
        </mxCell>
      </root>
    </mxGraphModel>
  </diagram>
</mxfile>
